<svg width="1061" height="512" viewBox="0 0 1061 512" fill="none" xmlns="http://www.w3.org/2000/svg">
<path d="M410.185 75.624C399.095 65.3878 354.213 32.7544 254.144 32.317C254.144 32.317 136.174 25.2304 78.7171 78.0737C46.7578 110.095 35.4935 157.076 34.271 215.256C33.0485 273.437 31.5641 382.448 136.436 412.019H136.523L136.436 457.164C136.436 457.164 135.737 475.449 147.787 479.123C162.283 483.673 170.84 469.762 184.724 454.801C192.321 446.577 202.799 434.504 210.745 425.318C282.523 431.354 337.622 417.531 343.909 415.519C358.404 410.794 440.398 400.296 453.671 291.284C467.467 178.774 447.034 107.732 410.185 75.624V75.624ZM422.323 283.06C411.058 374.049 344.608 379.823 332.383 383.76C327.144 385.423 278.681 397.496 217.818 393.559C217.818 393.559 172.412 448.415 158.266 462.675C153.638 467.312 148.573 466.875 148.661 457.689C148.661 451.652 149.01 382.71 149.01 382.71C148.923 382.71 148.923 382.71 149.01 382.71C60.1178 358.039 65.3571 265.213 66.3176 216.656C67.2781 168.1 76.4468 128.292 103.516 101.521C152.154 57.3388 252.31 63.9005 252.31 63.9005C336.923 64.2505 377.44 89.7972 386.871 98.3712C418.044 125.143 433.936 189.185 422.323 283.06V283.06ZM300.947 212.369C301.297 219.893 290.032 220.418 289.683 212.894C288.723 193.647 279.729 184.285 261.217 183.236C253.707 182.798 254.406 171.512 261.828 171.949C286.19 173.262 299.725 187.26 300.947 212.369ZM318.673 222.256C319.547 185.16 296.407 156.114 252.485 152.877C245.062 152.352 245.848 141.066 253.27 141.591C303.916 145.265 330.898 180.173 329.938 222.518C329.85 230.042 318.499 229.692 318.673 222.256V222.256ZM359.714 233.979C359.801 241.503 348.45 241.591 348.45 234.067C347.926 162.763 300.511 123.918 242.967 123.481C235.544 123.393 235.544 112.194 242.967 112.194C307.322 112.632 359.103 157.164 359.714 233.979V233.979ZM349.847 319.806V319.981C340.416 336.604 322.778 354.976 304.615 349.115L304.44 348.852C286.016 343.69 242.617 321.293 215.199 299.421C201.053 288.222 188.129 275.011 178.175 262.326C169.181 251.039 160.1 237.654 151.28 221.556C132.681 187.872 128.577 172.824 128.577 172.824C122.727 154.627 140.977 136.954 157.655 127.505H157.829C165.863 123.306 173.547 124.705 178.699 130.917C178.699 130.917 189.527 143.865 194.155 150.252C198.521 156.201 204.371 165.738 207.427 171.075C212.754 180.611 209.436 190.322 204.196 194.347L193.718 202.746C188.391 207.033 189.09 214.994 189.09 214.994C189.09 214.994 204.633 273.874 262.701 288.747C262.701 288.747 270.647 289.447 274.926 284.11L283.309 273.612C287.325 268.362 297.018 265.038 306.536 270.375C319.372 277.636 335.701 288.922 346.529 299.158C352.641 304.145 354.038 311.757 349.847 319.806Z" fill="#22262A"/>
<path d="M1059.68 102.201L992.084 421.001C986.984 443.501 973.684 449.101 954.784 438.501L851.784 362.601L802.084 410.401C796.584 415.901 791.984 420.501 781.384 420.501L788.784 315.601L979.684 143.101C987.984 135.701 977.884 131.601 966.784 139.001L730.784 287.601L629.184 255.801C607.084 248.901 606.684 233.701 633.784 223.101L1031.18 70.0006C1049.58 63.1006 1065.68 74.1006 1059.68 102.201V102.201Z" fill="#22262A"/>
<path d="M472 480H442L623.5 8H652.5L472 480Z" fill="#22262A"/>
</svg>
