<?xml version="1.0" standalone="no"?>
<!DOCTYPE svg PUBLIC "-//W3C//DTD SVG 20010904//EN"
 "http://www.w3.org/TR/2001/REC-SVG-20010904/DTD/svg10.dtd">
<svg version="1.0" xmlns="http://www.w3.org/2000/svg"
 width="762.000000pt" height="762.000000pt" viewBox="0 0 762.000000 762.000000"
 preserveAspectRatio="xMidYMid meet">
<metadata>
Created by potrace 1.11, written by Peter Selinger 2001-2013
</metadata>
<g transform="translate(0.000000,762.000000) scale(0.100000,-0.100000)"
fill="#000000" stroke="none">
<path d="M639 7610 c0 -3 -1 -977 -1 -2165 l-1 -2160 -53 -210 c-29 -115 -57
-235 -63 -265 -6 -30 -12 -64 -14 -75 -7 -34 -16 -88 -22 -130 -4 -22 -10 -67
-15 -100 -5 -33 -12 -89 -15 -125 -4 -36 -8 -76 -10 -89 -26 -159 -26 -897 -1
-1111 3 -19 7 -71 11 -115 4 -44 8 -93 10 -110 2 -16 7 -55 10 -85 3 -30 7
-66 9 -80 3 -14 7 -50 11 -81 3 -31 8 -67 11 -80 3 -13 6 -37 8 -54 2 -16 6
-46 10 -65 3 -19 8 -46 10 -60 2 -14 7 -41 10 -60 3 -19 8 -46 10 -60 12 -76
57 -288 65 -305 8 -20 12 -20 1392 -19 761 1 1418 4 1459 8 41 3 102 9 135 11
119 10 180 16 205 20 14 2 50 7 80 10 30 3 80 10 110 15 30 5 72 12 94 16 21
3 48 8 60 10 48 10 123 26 146 30 95 18 315 79 454 126 423 142 836 375 1156
653 47 41 257 251 302 301 70 79 188 235 254 337 74 112 80 118 109 112 11 -2
61 -7 111 -9 84 -5 138 -10 235 -21 117 -13 213 -17 204 -7 -5 6 -28 13 -50
16 -40 6 -93 15 -130 22 -25 5 -127 21 -225 35 -41 6 -84 12 -95 14 -11 2 -28
4 -37 4 -14 1 -11 12 18 64 82 143 178 362 244 553 36 105 105 342 116 403 3
12 11 51 19 85 15 64 20 94 30 161 4 22 8 47 10 55 2 8 7 38 11 65 3 28 8 57
9 66 2 9 8 61 14 115 7 55 14 117 16 139 26 235 26 839 0 1085 -9 79 -26 224
-30 250 -3 14 -7 43 -10 65 -58 399 -224 884 -412 1203 -24 41 -43 79 -43 86
0 15 182 207 433 456 l189 187 -104 -3 c-298 -9 -520 -14 -769 -16 l-277 -2
-34 29 c-112 97 -201 164 -338 255 -50 33 -93 60 -94 60 -2 0 -41 22 -87 48
-311 179 -764 337 -1166 408 -13 2 -35 6 -50 9 -26 5 -202 31 -268 40 -16 2
-61 6 -100 10 -38 3 -88 8 -110 10 -22 2 -89 7 -150 11 -127 8 -3015 12 -3016
4z m6349 -993 c-86 -87 -355 -370 -397 -418 -32 -36 -61 -51 -61 -31 0 24
-213 292 -317 401 -24 24 -41 47 -38 51 2 4 35 8 72 10 37 1 86 3 108 5 22 1
90 6 150 10 61 4 139 9 175 10 151 9 285 17 287 18 1 1 20 3 43 5 l41 3 -63
-64z m-3523 -671 c111 -6 130 -9 240 -27 406 -69 752 -295 947 -617 118 -193
219 -475 252 -702 2 -8 8 -46 14 -85 18 -111 21 -134 28 -236 l6 -96 -42 -66
c-41 -67 -42 -67 -88 -68 -84 -2 -303 -17 -343 -24 -13 -2 -46 -6 -74 -10 -98
-12 -190 -26 -205 -30 -8 -2 -31 -7 -50 -10 -31 -5 -81 -16 -145 -31 -36 -9
-40 -10 -75 -21 -19 -6 -74 -24 -122 -39 -54 -17 -88 -33 -88 -41 0 -10 5 -11
18 -5 9 5 73 21 142 36 128 26 152 31 230 41 25 3 56 8 70 10 87 16 604 35
615 23 3 -2 -21 -47 -53 -99 -184 -301 -404 -720 -537 -1019 -25 -58 -55 -123
-65 -145 -36 -81 -100 -236 -100 -244 0 -5 -11 -33 -24 -62 -13 -30 -52 -138
-86 -239 -34 -102 -68 -190 -74 -197 -6 -6 -38 -14 -71 -18 -33 -3 -78 -10
-100 -15 -22 -5 -65 -11 -95 -15 -30 -3 -66 -8 -80 -10 -33 -5 -100 -13 -180
-21 -36 -3 -83 -8 -105 -10 -63 -7 -478 -13 -505 -7 l-25 4 0 2049 0 2049 55
3 c92 5 598 1 715 -6z m1499 -2078 c-3 -114 -15 -367 -19 -390 -2 -12 -6 -54
-10 -91 -3 -37 -8 -76 -10 -85 -1 -9 -6 -39 -9 -67 -4 -27 -14 -83 -22 -125
-8 -41 -18 -88 -20 -103 -9 -46 -69 -246 -97 -317 -136 -353 -345 -610 -627
-769 -41 -24 -89 -49 -107 -56 -34 -14 -34 -14 -16 35 4 8 7 20 9 25 30 110
195 562 259 710 7 17 27 64 45 105 117 271 241 525 394 805 141 259 216 386
224 381 4 -2 6 -28 6 -58z m-1130 -2020 c-9 -29 -21 -59 -28 -66 -11 -11 -155
-45 -246 -58 -19 -2 -48 -7 -65 -9 -80 -13 -205 -18 -487 -19 -243 -1 -308 1
-308 11 0 9 19 13 63 14 34 1 77 2 94 4 83 7 181 17 208 20 17 3 80 12 140 20
89 13 238 40 325 60 8 2 47 11 85 19 39 9 102 24 140 35 100 27 96 29 79 -31z"/>
</g>
</svg>
