<?xml version="1.0" standalone="no"?>
<!DOCTYPE svg PUBLIC "-//W3C//DTD SVG 20010904//EN"
 "http://www.w3.org/TR/2001/REC-SVG-20010904/DTD/svg10.dtd">
<svg version="1.0" xmlns="http://www.w3.org/2000/svg"
 width="366.000000pt" height="366.000000pt" viewBox="0 0 366.000000 366.000000"
 preserveAspectRatio="xMidYMid meet">
<metadata>
Created by potrace 1.11, written by Peter Selinger 2001-2013
</metadata>
<g transform="translate(0.000000,366.000000) scale(0.100000,-0.100000)"
fill="#000000" stroke="none">
<path d="M141 3083 c59 -174 121 -467 135 -629 3 -43 7 -92 9 -109 1 -16 4
-69 5 -116 l3 -86 -71 -144 c-90 -183 -164 -403 -187 -564 -4 -22 -8 -51 -11
-65 -7 -45 -17 -203 -17 -275 0 -80 12 -300 18 -330 2 -11 7 -40 10 -65 3 -25
7 -55 9 -66 2 -12 7 -39 10 -60 14 -87 19 -105 29 -101 25 8 150 362 202 572
15 61 29 111 30 113 1 1 25 -6 53 -17 199 -79 462 -84 715 -14 32 9 59 14 61
12 2 -2 6 -47 9 -99 7 -111 26 -172 68 -223 47 -57 96 -78 177 -78 127 1 168
118 107 309 -21 66 -216 487 -267 577 -6 11 -17 29 -23 40 -20 37 -77 125 -80
125 -4 0 87 -217 104 -249 7 -12 8 -21 3 -21 -17 0 -78 -243 -84 -331 -1 -22
-7 -38 -12 -37 -9 2 -80 -7 -151 -18 -11 -2 -69 -5 -130 -7 -124 -5 -219 4
-315 29 -68 18 -203 75 -213 91 -3 5 17 38 45 73 140 178 290 453 314 573 2
10 6 28 10 39 12 40 -15 7 -117 -140 -57 -81 -127 -181 -157 -222 l-54 -75 7
50 c12 97 14 111 21 195 4 47 7 166 8 265 1 99 5 187 10 195 5 8 46 64 90 123
89 120 83 119 128 33 42 -81 67 -187 72 -298 2 -59 15 -75 18 -22 3 89 -3 183
-17 239 -16 67 -93 227 -112 232 -6 3 -53 -43 -104 -101 -51 -58 -94 -104 -96
-103 -1 1 -5 25 -8 52 -6 45 -11 82 -30 194 -3 19 -8 37 -10 41 -2 3 -6 17 -8
31 -11 57 -40 157 -71 243 -32 88 -116 267 -138 294 -26 30 -25 6 3 -75z m144
-1260 c-7 -129 -12 -194 -19 -248 -3 -22 -8 -65 -11 -95 -3 -30 -7 -66 -10
-80 -2 -14 -7 -50 -10 -80 -4 -30 -13 -65 -21 -77 -8 -13 -10 -23 -4 -23 10 0
9 -17 -5 -90 -3 -14 -7 -39 -10 -56 -11 -70 -66 -351 -74 -381 -5 -17 -6 -34
-3 -37 3 -3 0 -6 -7 -6 -9 0 -11 14 -7 48 3 26 8 103 11 172 3 69 8 141 10
160 1 19 6 76 9 125 8 103 15 174 32 313 12 98 47 251 81 355 20 59 38 107 40
107 3 0 2 -48 -2 -107z m1025 -439 c81 -202 139 -445 124 -511 -7 -27 -25 -34
-65 -26 -63 12 -104 82 -124 208 -7 41 -7 302 0 365 2 19 4 49 5 65 l1 30 14
-26 c8 -14 28 -61 45 -105z m-1208 -776 c-8 -8 -9 -4 -5 13 4 13 8 18 11 10 2
-7 -1 -18 -6 -23z"/>
<path d="M1113 2805 c-88 -16 -151 -50 -192 -107 -46 -62 -38 -66 17 -8 70 77
118 90 297 84 77 -3 156 -7 175 -9 229 -29 1093 -22 1370 11 l45 5 -60 -62
c-33 -35 -64 -68 -70 -75 -5 -6 -35 -38 -65 -70 -31 -33 -89 -97 -130 -144
-41 -47 -77 -87 -80 -90 -41 -39 -237 -294 -320 -415 -43 -63 -66 -89 -82 -90
-13 -2 -59 -6 -103 -9 -84 -7 -249 -42 -275 -58 -14 -9 9 -7 80 7 82 16 290
29 290 18 0 -3 -30 -57 -67 -121 -167 -292 -294 -634 -347 -935 l-7 -38 68 56
c133 108 344 191 543 212 137 15 603 5 632 -13 4 -3 8 0 8 5 0 6 -10 11 -22
12 -13 0 -32 2 -43 5 -11 2 -40 6 -65 9 -25 4 -56 8 -70 11 -98 17 -362 23
-480 12 -147 -15 -274 -50 -392 -110 -43 -21 -78 -33 -78 -27 0 55 133 431
208 589 67 141 170 327 185 333 7 3 26 3 42 1 88 -11 387 -5 475 10 106 17
170 34 170 43 0 3 -148 3 -330 0 -181 -4 -330 -4 -330 0 0 11 164 253 243 360
129 173 255 319 425 490 56 57 102 105 102 106 0 1 -17 1 -37 -1 -146 -11
-1358 -2 -1608 13 -27 1 -83 -3 -122 -10z"/>
<path d="M3120 2555 c-1 -11 -3 -45 -5 -75 -2 -30 -6 -91 -10 -135 -3 -44 -8
-111 -11 -150 -2 -38 -7 -97 -9 -130 -3 -33 -8 -96 -10 -140 -3 -44 -8 -108
-10 -141 -3 -34 -8 -97 -10 -140 -3 -44 -7 -110 -10 -149 -2 -38 -7 -115 -10
-170 -9 -144 -14 -192 -26 -223 -6 -15 -13 -54 -16 -88 -4 -50 -2 -62 11 -67
9 -4 16 -3 17 1 11 111 59 201 154 291 61 58 123 90 173 91 78 0 98 -40 87
-178 -9 -116 -8 -137 5 -163 16 -29 69 -25 117 10 38 27 93 89 93 104 0 4 -27
-11 -61 -33 -59 -38 -97 -56 -104 -48 -2 2 -6 35 -9 73 -18 241 -43 282 -165
273 -71 -5 -137 -38 -197 -97 l-46 -46 7 55 c3 30 8 62 10 70 3 13 7 48 20
185 1 17 6 73 9 125 4 52 9 118 12 145 9 98 13 701 5 735 -6 21 -10 27 -11 15z"/>
<path d="M843 2455 c12 -137 116 -421 184 -502 21 -25 46 -55 55 -67 18 -21
18 -21 9 9 -5 17 -12 55 -14 85 -4 42 -21 89 -72 195 -100 207 -132 280 -140
314 -13 58 -28 35 -22 -34z"/>
</g>
</svg>
